<svg xmlns="http://www.w3.org/2000/svg" viewBox="0 0 360 440">
<g transform="translate(160,110)">
  <!-- shadow -->
  <ellipse cx="0" cy="208" rx="110" ry="13" fill="#0E5248" opacity="0.18"/>
  <!-- back cover -->
  <rect x="-76" y="6" width="160" height="226" rx="12" fill="#0A3D30"/>
  <!-- right page edges -->
  <rect x="78" y="-2" width="14" height="218" rx="4" fill="#FFF8E8"/>
  <line x1="82" y1="-2" x2="82" y2="216" stroke="#E0D0A8" stroke-width="2" opacity="0.6"/>
  <line x1="87" y1="-2" x2="87" y2="216" stroke="#E0D0A8" stroke-width="1.2" opacity="0.35"/>
  <!-- front cover -->
  <rect x="-80" y="-2" width="158" height="218" rx="12" fill="#2ABFA8"/>
  <!-- spine -->
  <rect x="-80" y="-2" width="20" height="218" rx="10" fill="#1D9E86"/>
  <rect x="-77" y="-2" width="7" height="218" rx="4" fill="#2ABFA8" opacity="0.4"/>
  <!-- top band -->
  <rect x="-80" y="-2" width="158" height="36" rx="12" fill="#1D9E86"/>
  <rect x="-80" y="24" width="158" height="10" fill="#1D9E86"/>
  <!-- bottom band -->
  <rect x="-80" y="182" width="158" height="36" rx="12" fill="#1D9E86"/>
  <rect x="-80" y="182" width="158" height="10" fill="#1D9E86"/>
  <!-- title lines top -->
  <rect x="-52" y="7" width="90" height="5" rx="2.5" fill="#A8F0E8" opacity="0.5"/>
  <rect x="-38" y="16" width="62" height="4" rx="2" fill="#A8F0E8" opacity="0.3"/>
  <!-- title lines bottom -->
  <rect x="-52" y="189" width="90" height="5" rx="2.5" fill="#A8F0E8" opacity="0.5"/>
  <rect x="-38" y="198" width="62" height="4" rx="2" fill="#A8F0E8" opacity="0.3"/>
  <!-- bookmark -->
  <rect x="34" y="-2" width="14" height="50" rx="4" fill="#FFD166"/>
  <path d="M34 48 L41 38 L48 48" fill="#FFD166"/>
  <ellipse cx="-24" cy="92" rx="28" ry="30" fill="#1D9E86"/>
  <ellipse cx="24" cy="92" rx="28" ry="30" fill="#1D9E86"/>
  <path d="M-48 88 Q-24 70 0 88" fill="none" stroke="#0A3D30" stroke-width="6" stroke-linecap="round"/>
  <path d="M0 88 Q24 70 48 88" fill="none" stroke="#0A3D30" stroke-width="6" stroke-linecap="round"/>
  <circle cx="-14" cy="84" r="4" fill="#fff" opacity="0.6"/>
  <circle cx="34" cy="84" r="4" fill="#fff" opacity="0.6"/><path d="M-48 48 Q-24 33 0 48" fill="none" stroke="#FFD166" stroke-width="5.5" stroke-linecap="round"/><path d="M0 48 Q24 33 48 48" fill="none" stroke="#FFD166" stroke-width="5.5" stroke-linecap="round"/><path d="M-28 148 Q0 170 28 148 Q28 166 0 174 Q-28 166 -28 148Z" fill="#1D9E86"/><ellipse cx="0" cy="162" rx="17" ry="11" fill="#0A3D30"/><ellipse cx="0" cy="169" rx="11" ry="6" fill="#FF8A80"/>
  <ellipse cx="-60" cy="110" rx="14" ry="10" fill="#A8F0E8" opacity="0.45"/>
  <ellipse cx="60" cy="110" rx="14" ry="10" fill="#A8F0E8" opacity="0.45"/><text x="0" y="-22" text-anchor="middle" font-size="34">&#127942;</text><rect x="-122" y="16" width="13" height="13" rx="2" fill="#FFD166" transform="rotate(30 -122 16)"/><rect x="110" y="8" width="11" height="11" rx="2" fill="#A8F0E8" transform="rotate(-20 110 8)"/><circle cx="-110" cy="76" r="7" fill="#FF8A80"/><circle cx="116" cy="56" r="6" fill="#FFD166"/><rect x="-126" y="126" width="10" height="10" rx="2" fill="#4A35B0" transform="rotate(45 -126 126)"/><circle cx="120" cy="144" r="7" fill="#58CC02"/></g>
</svg>